<?xml version="1.0" encoding="utf-8"?>
<!-- Generator: Adobe Illustrator 16.0.0, SVG Export Plug-In . SVG Version: 6.00 Build 0)  -->
<!DOCTYPE svg PUBLIC "-//W3C//DTD SVG 1.1//EN" "http://www.w3.org/Graphics/SVG/1.1/DTD/svg11.dtd">
<svg version="1.1" id="图层_1" xmlns="http://www.w3.org/2000/svg" xmlns:xlink="http://www.w3.org/1999/xlink" x="0px" y="0px"
	 width="180px" height="16px" viewBox="0 0 180 16" enable-background="new 0 0 180 16" xml:space="preserve">
<g>
	<rect fill="#444444" width="180" height="16"/>
	<rect x="7" y="6" fill="#191919" width="166" height="9"/>
	<rect x="7" y="6" fill="#B7B7B7" width="166" height="1"/>
	<g>
		<circle fill="#4F4F4F" cx="9.499" cy="2.5" r="2"/>
		<path fill="#333333" d="M9.499,1C10.326,1,11,1.673,11,2.499C11,3.326,10.326,4,9.499,4C8.673,4,8,3.326,8,2.499
			C8,1.673,8.673,1,9.499,1 M9.499,0C8.119,0,7,1.119,7,2.499C7,3.881,8.119,5,9.499,5C10.881,5,12,3.881,12,2.499
			C12,1.119,10.881,0,9.499,0L9.499,0z"/>
	</g>
	<rect x="48" y="7" fill="#B7B7B7" width="1" height="8"/>
	<rect x="7" y="7" fill="#B7B7B7" width="1" height="8"/>
	<g>
		<rect x="9" y="8" fill="#595757" width="3" height="7"/>
		<rect x="19" y="8" fill="#595757" width="21" height="7"/>
		<rect x="12" y="8" fill="#3E3A39" width="1" height="7"/>
		<rect x="18" y="8" fill="#727171" width="1" height="7"/>
		<rect x="13" y="8" fill="#595757" width="5" height="7"/>
		<rect x="40" y="8" fill="#353535" width="7" height="7"/>
		<g>
			<circle cx="15.499" cy="11.5" r="1"/>
			<path fill="#33231D" d="M15.499,11C15.775,11,16,11.224,16,11.499C16,11.775,15.775,12,15.499,12C15.224,12,15,11.775,15,11.499
				C15,11.224,15.224,11,15.499,11 M15.499,10C14.672,10,14,10.672,14,11.499C14,12.328,14.672,13,15.499,13
				C16.328,13,17,12.328,17,11.499C17,10.672,16.328,10,15.499,10L15.499,10z"/>
		</g>
		<rect x="13" y="9" fill="#333333" width="5" height="1"/>
		<rect x="13" y="13" fill="#333333" width="5" height="1"/>
		<rect x="20" y="9" width="4" height="5"/>
		<rect x="25" y="9" width="4" height="5"/>
		<rect x="30" y="9" width="4" height="5"/>
		<rect x="35" y="9" width="4" height="5"/>
		<rect x="41" y="9" fill="#595959" width="5" height="5"/>
		<rect x="42" y="10" fill="#B7B7B7" width="3" height="3"/>
		<rect x="42" y="11" width="3" height="2"/>
		<polygon fill="#828282" points="40,8 41,9 41,14 40,15 		"/>
		<polygon fill="#3A3A3A" points="47,8 46,9 46,14 47,15 		"/>
		<polygon fill="#232323" points="40,15 41,14 46,14 47,15 		"/>
		<rect x="21" y="10" fill="#727272" width="1" height="1"/>
		<rect x="23" y="10" fill="#727272" width="1" height="1"/>
		<rect x="21" y="12" fill="#727272" width="1" height="1"/>
		<rect x="23" y="12" fill="#727272" width="1" height="1"/>
		<rect x="26" y="10" fill="#727272" width="1" height="1"/>
		<rect x="28" y="10" fill="#727272" width="1" height="1"/>
		<rect x="26" y="12" fill="#727272" width="1" height="1"/>
		<rect x="28" y="12" fill="#727272" width="1" height="1"/>
		<rect x="31" y="10" fill="#727272" width="1" height="1"/>
		<rect x="33" y="10" fill="#727272" width="1" height="1"/>
		<rect x="31" y="12" fill="#727272" width="1" height="1"/>
		<rect x="33" y="12" fill="#727272" width="1" height="1"/>
		<rect x="36" y="10" fill="#727272" width="1" height="1"/>
		<rect x="38" y="10" fill="#727272" width="1" height="1"/>
		<rect x="36" y="12" fill="#727272" width="1" height="1"/>
		<rect x="38" y="12" fill="#727272" width="1" height="1"/>
	</g>
	<rect x="89" y="7" fill="#B7B7B7" width="1" height="8"/>
	<g>
		<rect x="50" y="8" fill="#595757" width="3" height="7"/>
		<rect x="60" y="8" fill="#595757" width="21" height="7"/>
		<rect x="53" y="8" fill="#3E3A39" width="1" height="7"/>
		<rect x="59" y="8" fill="#727171" width="1" height="7"/>
		<rect x="54" y="8" fill="#595757" width="5" height="7"/>
		<rect x="81" y="8" fill="#353535" width="7" height="7"/>
		<g>
			<circle cx="56.499" cy="11.5" r="1"/>
			<path fill="#33231D" d="M56.499,11C56.775,11,57,11.224,57,11.499C57,11.775,56.775,12,56.499,12C56.224,12,56,11.775,56,11.499
				C56,11.224,56.224,11,56.499,11 M56.499,10C55.672,10,55,10.672,55,11.499C55,12.328,55.672,13,56.499,13
				C57.328,13,58,12.328,58,11.499C58,10.672,57.328,10,56.499,10L56.499,10z"/>
		</g>
		<rect x="54" y="9" fill="#333333" width="5" height="1"/>
		<rect x="54" y="13" fill="#333333" width="5" height="1"/>
		<rect x="61" y="9" width="4" height="5"/>
		<rect x="66" y="9" width="4" height="5"/>
		<rect x="71" y="9" width="4" height="5"/>
		<rect x="76" y="9" width="4" height="5"/>
		<rect x="82" y="9" fill="#595959" width="5" height="5"/>
		<rect x="83" y="10" fill="#B7B7B7" width="3" height="3"/>
		<rect x="83" y="11" width="3" height="2"/>
		<polygon fill="#828282" points="81,8 82,9 82,14 81,15 		"/>
		<polygon fill="#3A3A3A" points="88,8 87,9 87,14 88,15 		"/>
		<polygon fill="#232323" points="81,15 82,14 87,14 88,15 		"/>
		<rect x="62" y="10" fill="#727272" width="1" height="1"/>
		<rect x="64" y="10" fill="#727272" width="1" height="1"/>
		<rect x="62" y="12" fill="#727272" width="1" height="1"/>
		<rect x="64" y="12" fill="#727272" width="1" height="1"/>
		<rect x="67" y="10" fill="#727272" width="1" height="1"/>
		<rect x="69" y="10" fill="#727272" width="1" height="1"/>
		<rect x="67" y="12" fill="#727272" width="1" height="1"/>
		<rect x="69" y="12" fill="#727272" width="1" height="1"/>
		<rect x="72" y="10" fill="#727272" width="1" height="1"/>
		<rect x="74" y="10" fill="#727272" width="1" height="1"/>
		<rect x="72" y="12" fill="#727272" width="1" height="1"/>
		<rect x="74" y="12" fill="#727272" width="1" height="1"/>
		<rect x="77" y="10" fill="#727272" width="1" height="1"/>
		<rect x="79" y="10" fill="#727272" width="1" height="1"/>
		<rect x="77" y="12" fill="#727272" width="1" height="1"/>
		<rect x="79" y="12" fill="#727272" width="1" height="1"/>
	</g>
	<rect x="130" y="7" fill="#B7B7B7" width="1" height="8"/>
	<g>
		<rect x="91" y="8" fill="#595757" width="3" height="7"/>
		<rect x="101" y="8" fill="#595757" width="21" height="7"/>
		<rect x="94" y="8" fill="#3E3A39" width="1" height="7"/>
		<rect x="100" y="8" fill="#727171" width="1" height="7"/>
		<rect x="95" y="8" fill="#595757" width="5" height="7"/>
		<rect x="122" y="8" fill="#353535" width="7" height="7"/>
		<g>
			<circle cx="97.499" cy="11.5" r="1"/>
			<path fill="#33231D" d="M97.499,11C97.775,11,98,11.224,98,11.499C98,11.775,97.775,12,97.499,12C97.224,12,97,11.775,97,11.499
				C97,11.224,97.224,11,97.499,11 M97.499,10C96.672,10,96,10.672,96,11.499C96,12.328,96.672,13,97.499,13
				C98.328,13,99,12.328,99,11.499C99,10.672,98.328,10,97.499,10L97.499,10z"/>
		</g>
		<rect x="95" y="9" fill="#333333" width="5" height="1"/>
		<rect x="95" y="13" fill="#333333" width="5" height="1"/>
		<rect x="102" y="9" width="4" height="5"/>
		<rect x="107" y="9" width="4" height="5"/>
		<rect x="112" y="9" width="4" height="5"/>
		<rect x="117" y="9" width="4" height="5"/>
		<rect x="123" y="9" fill="#595959" width="5" height="5"/>
		<rect x="124" y="10" fill="#B7B7B7" width="3" height="3"/>
		<rect x="124" y="11" width="3" height="2"/>
		<polygon fill="#828282" points="122,8 123,9 123,14 122,15 		"/>
		<polygon fill="#3A3A3A" points="129,8 128,9 128,14 129,15 		"/>
		<polygon fill="#232323" points="122,15 123,14 128,14 129,15 		"/>
		<rect x="103" y="10" fill="#727272" width="1" height="1"/>
		<rect x="105" y="10" fill="#727272" width="1" height="1"/>
		<rect x="103" y="12" fill="#727272" width="1" height="1"/>
		<rect x="105" y="12" fill="#727272" width="1" height="1"/>
		<rect x="108" y="10" fill="#727272" width="1" height="1"/>
		<rect x="110" y="10" fill="#727272" width="1" height="1"/>
		<rect x="108" y="12" fill="#727272" width="1" height="1"/>
		<rect x="110" y="12" fill="#727272" width="1" height="1"/>
		<rect x="113" y="10" fill="#727272" width="1" height="1"/>
		<rect x="115" y="10" fill="#727272" width="1" height="1"/>
		<rect x="113" y="12" fill="#727272" width="1" height="1"/>
		<rect x="115" y="12" fill="#727272" width="1" height="1"/>
		<rect x="118" y="10" fill="#727272" width="1" height="1"/>
		<rect x="120" y="10" fill="#727272" width="1" height="1"/>
		<rect x="118" y="12" fill="#727272" width="1" height="1"/>
		<rect x="120" y="12" fill="#727272" width="1" height="1"/>
	</g>
	<rect x="172" y="7" fill="#B7B7B7" width="1" height="8"/>
	<g>
		<rect x="132" y="8" fill="#595757" width="3" height="7"/>
		<rect x="142" y="8" fill="#595757" width="21" height="7"/>
		<rect x="135" y="8" fill="#3E3A39" width="1" height="7"/>
		<rect x="141" y="8" fill="#727171" width="1" height="7"/>
		<rect x="136" y="8" fill="#595757" width="5" height="7"/>
		<rect x="163" y="8" fill="#353535" width="7" height="7"/>
		<g>
			<circle cx="138.499" cy="11.5" r="1"/>
			<path fill="#33231D" d="M138.499,11c0.276,0,0.501,0.224,0.501,0.499c0,0.276-0.225,0.501-0.501,0.501
				c-0.275,0-0.499-0.225-0.499-0.501C138,11.224,138.224,11,138.499,11 M138.499,10c-0.827,0-1.499,0.672-1.499,1.499
				c0,0.829,0.672,1.501,1.499,1.501c0.829,0,1.501-0.672,1.501-1.501C140,10.672,139.328,10,138.499,10L138.499,10z"/>
		</g>
		<rect x="136" y="9" fill="#333333" width="5" height="1"/>
		<rect x="136" y="13" fill="#333333" width="5" height="1"/>
		<rect x="143" y="9" width="4" height="5"/>
		<rect x="148" y="9" width="4" height="5"/>
		<rect x="153" y="9" width="4" height="5"/>
		<rect x="158" y="9" width="4" height="5"/>
		<rect x="164" y="9" fill="#595959" width="5" height="5"/>
		<rect x="165" y="10" fill="#B7B7B7" width="3" height="3"/>
		<rect x="165" y="11" width="3" height="2"/>
		<polygon fill="#828282" points="163,8 164,9 164,14 163,15 		"/>
		<polygon fill="#3A3A3A" points="170,8 169,9 169,14 170,15 		"/>
		<polygon fill="#232323" points="163,15 164,14 169,14 170,15 		"/>
		<rect x="144" y="10" fill="#727272" width="1" height="1"/>
		<rect x="146" y="10" fill="#727272" width="1" height="1"/>
		<rect x="144" y="12" fill="#727272" width="1" height="1"/>
		<rect x="146" y="12" fill="#727272" width="1" height="1"/>
		<rect x="149" y="10" fill="#727272" width="1" height="1"/>
		<rect x="151" y="10" fill="#727272" width="1" height="1"/>
		<rect x="149" y="12" fill="#727272" width="1" height="1"/>
		<rect x="151" y="12" fill="#727272" width="1" height="1"/>
		<rect x="154" y="10" fill="#727272" width="1" height="1"/>
		<rect x="156" y="10" fill="#727272" width="1" height="1"/>
		<rect x="154" y="12" fill="#727272" width="1" height="1"/>
		<rect x="156" y="12" fill="#727272" width="1" height="1"/>
		<rect x="159" y="10" fill="#727272" width="1" height="1"/>
		<rect x="161" y="10" fill="#727272" width="1" height="1"/>
		<rect x="159" y="12" fill="#727272" width="1" height="1"/>
		<rect x="161" y="12" fill="#727272" width="1" height="1"/>
	</g>
	<circle cx="13.5" cy="2.5" r="0.5"/>
	<g>
		<polygon points="17.259,4 16.678,3 17.259,2 18.419,2 19,3 18.419,4 		"/>
		<polygon points="29.259,4 28.678,3 29.259,2 30.419,2 31,3 30.419,4 		"/>
		<g>
			<path d="M28,4c0,0.553-0.447,1-1,1h-6c-0.553,0-1-0.447-1-1V2c0-0.553,0.447-1,1-1h6c0.553,0,1,0.447,1,1V4z"/>
			<rect x="21" y="2" fill="#595757" width="6" height="2"/>
			<rect x="22" y="2" fill="#383838" width="1" height="1"/>
			<rect x="24" y="2" fill="#383838" width="1" height="1"/>
			<rect x="26" y="2" fill="#383838" width="1" height="1"/>
			<rect x="21" y="3" fill="#383838" width="1" height="1"/>
			<rect x="23" y="3" fill="#383838" width="1" height="1"/>
			<rect x="25" y="3" fill="#383838" width="1" height="1"/>
		</g>
	</g>
	<g>
		<rect x="77" y="1" width="6" height="2"/>
		<rect x="78" y="1" fill="#595959" width="4" height="1"/>
		<rect x="84" y="1" width="6" height="2"/>
		<rect x="85" y="1" fill="#595959" width="4" height="1"/>
	</g>
	<g>
		<rect x="169" y="1" width="1" height="1"/>
		<rect x="169" y="3" width="1" height="1"/>
		<rect x="171" y="1" width="1" height="1"/>
		<rect x="171" y="3" width="1" height="1"/>
	</g>
	<g>
		<g>
			<rect x="92" y="1" width="1" height="1"/>
			<rect x="92" y="3" width="1" height="1"/>
			<rect x="94" y="1" width="1" height="1"/>
			<rect x="94" y="3" width="1" height="1"/>
			<rect x="96" y="1" width="1" height="1"/>
			<rect x="96" y="3" width="1" height="1"/>
			<rect x="98" y="1" width="1" height="1"/>
			<rect x="98" y="3" width="1" height="1"/>
			<rect x="100" y="1" width="1" height="1"/>
			<rect x="100" y="3" width="1" height="1"/>
			<rect x="102" y="1" width="1" height="1"/>
			<rect x="102" y="3" width="1" height="1"/>
			<rect x="104" y="1" width="1" height="1"/>
			<rect x="104" y="3" width="1" height="1"/>
			<rect x="106" y="1" width="1" height="1"/>
			<rect x="106" y="3" width="1" height="1"/>
			<rect x="108" y="1" width="1" height="1"/>
			<rect x="108" y="3" width="1" height="1"/>
			<rect x="110" y="1" width="1" height="1"/>
			<rect x="110" y="3" width="1" height="1"/>
			<rect x="112" y="1" width="1" height="1"/>
			<rect x="112" y="3" width="1" height="1"/>
			<rect x="114" y="1" width="1" height="1"/>
			<rect x="114" y="3" width="1" height="1"/>
		</g>
		<rect x="117" width="1" height="6"/>
	</g>
	<rect x="167" width="1" height="6"/>
	<g>
		<g>
			<rect x="155" y="1" width="6" height="4"/>
		</g>
		<circle cx="162.5" cy="3.5" r="0.5"/>
		<g>
			<rect x="156" y="2" fill="#3E3A39" width="4" height="2"/>
		</g>
		<rect x="151" y="4" fill="#91B8C6" width="2" height="1"/>
	</g>
	<g>
		<rect x="56" y="1" fill="#5E6169" width="14" height="2"/>
		<g>
			<rect x="42" fill="#1C1C1C" width="10" height="4"/>
			<rect x="43" y="1" fill="#5E6169" width="2" height="2"/>
			<rect x="46" y="1" fill="#5E6169" width="2" height="2"/>
			<rect x="49" y="1" fill="#5E6169" width="2" height="2"/>
		</g>
		<g>
			<linearGradient id="SVGID_1_" gradientUnits="userSpaceOnUse" x1="72" y1="2" x2="74" y2="2">
				<stop  offset="0" style="stop-color:#595757"/>
				<stop  offset="1" style="stop-color:#898989"/>
			</linearGradient>
			<circle fill="url(#SVGID_1_)" cx="73" cy="2" r="1"/>
		</g>
		<rect x="40" fill="#B7B7B7" width="1" height="6"/>
		<rect x="75" fill="#B7B7B7" width="1" height="6"/>
	</g>
</g>
</svg>
