<?xml version="1.0" standalone="no"?><!DOCTYPE svg PUBLIC "-//W3C//DTD SVG 1.1//EN" "http://www.w3.org/Graphics/SVG/1.1/DTD/svg11.dtd"><svg t="1634893985491" class="icon" viewBox="0 0 1024 1024" version="1.1" xmlns="http://www.w3.org/2000/svg" p-id="2513" width="32" height="32" xmlns:xlink="http://www.w3.org/1999/xlink"><defs><style type="text/css"></style></defs><path d="M721.6 196h-64.4c-12.5 0-22.7-10.2-22.7-22.7s10.2-22.7 22.7-22.7h64.4c12.5 0 22.7 10.2 22.7 22.7S734.1 196 721.6 196zM721.6 260h-64.4c-12.5 0-22.7-10.2-22.7-22.7s10.2-22.7 22.7-22.7h64.4c12.5 0 22.7 10.2 22.7 22.7S734.1 260 721.6 260z" fill="#1296db" p-id="2514"></path><path d="M492.1 931.6C395.5 931.6 317 853 317 756.5c0-51.8 22.3-99.7 61.5-133.1V187.5c0-62.6 51-113.6 113.6-113.6s113.6 51 113.6 113.6v435.9c39.3 33.4 61.5 81.3 61.5 133.1 0.1 96.5-78.5 175.1-175.1 175.1z m0-812.3c-37.6 0-68.2 30.6-68.2 68.2v458.2l-9.1 6.8c-33.3 24.8-52.4 62.7-52.4 103.9 0 71.5 58.2 129.7 129.7 129.7 71.5 0 129.7-58.2 129.7-129.7 0-41.2-19.1-79.1-52.4-103.9l-9.1-6.8V187.5c0-37.6-30.6-68.2-68.2-68.2z" fill="#1296db" p-id="2515"></path><path d="M494 705.3c-12.5 0-22.7-10.2-22.7-22.7V262.3c0-12.5 10.2-22.7 22.7-22.7s22.7 10.2 22.7 22.7v420.4c0 12.5-10.1 22.6-22.7 22.6z" fill="#1296db" p-id="2516" data-spm-anchor-id="a313x.7781069.0.i0"></path><path d="M721.6 324h-64.4c-12.5 0-22.7-10.2-22.7-22.7s10.2-22.7 22.7-22.7h64.4c12.5 0 22.7 10.2 22.7 22.7S734.1 324 721.6 324zM721.6 388h-64.4c-12.5 0-22.7-10.2-22.7-22.7s10.2-22.7 22.7-22.7h64.4c12.5 0 22.7 10.2 22.7 22.7S734.1 388 721.6 388zM721.6 452h-64.4c-12.5 0-22.7-10.2-22.7-22.7s10.2-22.7 22.7-22.7h64.4c12.5 0 22.7 10.2 22.7 22.7S734.1 452 721.6 452zM721.6 516h-64.4c-12.5 0-22.7-10.2-22.7-22.7s10.2-22.7 22.7-22.7h64.4c12.5 0 22.7 10.2 22.7 22.7S734.1 516 721.6 516z" fill="#1296db" p-id="2517"></path></svg>