<?xml version="1.0" encoding="utf-8"?>
<!-- Generator: Adobe Illustrator 16.0.0, SVG Export Plug-In . SVG Version: 6.00 Build 0)  -->
<!DOCTYPE svg PUBLIC "-//W3C//DTD SVG 1.1//EN" "http://www.w3.org/Graphics/SVG/1.1/DTD/svg11.dtd">
<svg version="1.1" id="图层_1" xmlns="http://www.w3.org/2000/svg" xmlns:xlink="http://www.w3.org/1999/xlink" x="0px" y="0px"
	 width="270px" height="28px" viewBox="0 0 270 28" enable-background="new 0 0 270 28" xml:space="preserve">
<g>
	<g>
		<linearGradient id="SVGID_1_" gradientUnits="userSpaceOnUse" x1="13" y1="15.5" x2="32" y2="15.5">
			<stop  offset="0" style="stop-color:#FFFFFF"/>
			<stop  offset="0.6075" style="stop-color:#696969"/>
			<stop  offset="0.9946" style="stop-color:#C4C4C4"/>
		</linearGradient>
		<path fill-rule="evenodd" clip-rule="evenodd" fill="url(#SVGID_1_)" d="M15.207,28L13,25.793v-1.535c2-0.88,7-5.233,7-8.631V3h5
			v12.627c0,3.397,6,7.751,7,8.631v1.535L30.793,28H15.207z"/>
		<path fill="#727272" d="M25,3v12.627c0,3.492,5.324,7.661,7,8.887v1.072L30.586,27H23.5h-8.086L14,25.586v-1.072
			c1.676-1.226,7-5.395,7-8.887V3h2.5H25 M26,2h-2.5H20v13.627C20,19.126,13,24,13,24v2l2,2h8.5H31l2-2v-2c0,0-7-4.874-7-8.373V2
			L26,2z"/>
	</g>
	<g>
		<path fill-rule="evenodd" clip-rule="evenodd" d="M30,24c0,0-7-4.874-7-8.373V2h1v13.627C24,19.126,31,24,31,24v2l-2,2h-1l2-2V24z
			"/>
	</g>
	<linearGradient id="SVGID_2_" gradientUnits="userSpaceOnUse" x1="14" y1="25" x2="32" y2="25">
		<stop  offset="0" style="stop-color:#D4D4D4"/>
		<stop  offset="0.6075" style="stop-color:#4F4F4F"/>
		<stop  offset="0.9946" style="stop-color:#969696"/>
	</linearGradient>
	<rect x="14" y="24" fill-rule="evenodd" clip-rule="evenodd" fill="url(#SVGID_2_)" width="18" height="2"/>
	<rect x="15" y="24" fill-rule="evenodd" clip-rule="evenodd" fill="#5E5B5A" width="2" height="2"/>
	<rect x="30" y="24" fill-rule="evenodd" clip-rule="evenodd" fill="#2C221F" width="2" height="2"/>
	<g>
		<path fill-rule="evenodd" clip-rule="evenodd" fill="#515151" d="M22.695,17h-1C20.35,20.275,15,24,15,24v2l2,2h1l-2-2v-2
			C16,24,21.35,20.275,22.695,17z"/>
	</g>
	<path fill-rule="evenodd" clip-rule="evenodd" fill="#FFFFFF" d="M21,3v14c-1.346,3.275-7,7-7,7v2l2,2h1l-2-2v-2
		c0,0,5.654-3.725,7-7V3H21z"/>
</g>
<g>
	<g>
		<linearGradient id="SVGID_3_" gradientUnits="userSpaceOnUse" x1="237" y1="15.5" x2="256" y2="15.5">
			<stop  offset="0" style="stop-color:#FFFFFF"/>
			<stop  offset="0.6075" style="stop-color:#696969"/>
			<stop  offset="0.9946" style="stop-color:#C4C4C4"/>
		</linearGradient>
		<path fill-rule="evenodd" clip-rule="evenodd" fill="url(#SVGID_3_)" d="M239.207,28L237,25.793v-1.535c2-0.88,7-5.233,7-8.631V3
			h5v12.627c0,3.397,6,7.751,7,8.631v1.535L254.793,28H239.207z"/>
		<path fill="#727272" d="M249,3v12.627c0,3.492,5.324,7.661,7,8.887v1.072L254.586,27H247.5h-8.086L238,25.586v-1.072
			c1.676-1.226,7-5.395,7-8.887V3h2.5H249 M250,2h-2.5H244v13.627c0,3.499-7,8.373-7,8.373v2l2,2h8.5h7.5l2-2v-2
			c0,0-7-4.874-7-8.373V2L250,2z"/>
	</g>
	<g>
		<path fill-rule="evenodd" clip-rule="evenodd" d="M254,24c0,0-7-4.874-7-8.373V2h1v13.627c0,3.499,7,8.373,7,8.373v2l-2,2h-1l2-2
			V24z"/>
	</g>
	<linearGradient id="SVGID_4_" gradientUnits="userSpaceOnUse" x1="238" y1="25" x2="256" y2="25">
		<stop  offset="0" style="stop-color:#D4D4D4"/>
		<stop  offset="0.6075" style="stop-color:#4F4F4F"/>
		<stop  offset="0.9946" style="stop-color:#969696"/>
	</linearGradient>
	<rect x="238" y="24" fill-rule="evenodd" clip-rule="evenodd" fill="url(#SVGID_4_)" width="18" height="2"/>
	<rect x="239" y="24" fill-rule="evenodd" clip-rule="evenodd" fill="#5E5B5A" width="2" height="2"/>
	<rect x="254" y="24" fill-rule="evenodd" clip-rule="evenodd" fill="#2C221F" width="2" height="2"/>
	<g>
		<path fill-rule="evenodd" clip-rule="evenodd" fill="#515151" d="M246.695,17h-1C244.35,20.275,239,24,239,24v2l2,2h1l-2-2v-2
			C240,24,245.35,20.275,246.695,17z"/>
	</g>
	<path fill-rule="evenodd" clip-rule="evenodd" fill="#FFFFFF" d="M245,3v14c-1.346,3.275-7,7-7,7v2l2,2h1l-2-2v-2
		c0,0,5.654-3.725,7-7V3H245z"/>
</g>
<rect y="2" fill-rule="evenodd" clip-rule="evenodd" fill="#333333" width="270" height="10"/>
<rect fill-rule="evenodd" clip-rule="evenodd" width="270" height="2"/>
</svg>
